<?xml version="1.0" encoding="UTF-8"?>
<svg id="Calque_2" data-name="Calque 2" xmlns="http://www.w3.org/2000/svg" viewBox="0 0 500 500">
  <defs>
    <style>
      .cls-1 {
        fill: #fff;
      }

      .cls-2, .cls-3 {
        stroke-width: .75px;
      }

      .cls-2, .cls-3, .cls-4, .cls-5, .cls-6 {
        fill: none;
        stroke-miterlimit: 10;
      }

      .cls-2, .cls-5, .cls-6 {
        stroke: #fff;
      }

      .cls-3, .cls-4 {
        stroke: #f6a03f;
      }

      .cls-7 {
        fill: #e87446;
      }

      .cls-4, .cls-5 {
        stroke-width: .5px;
      }

      .cls-8 {
        fill: #f6a03f;
      }

      .cls-9 {
        fill: #683739;
      }

      .cls-6 {
        stroke-width: .25px;
      }
    </style>
  </defs>
  <g id="logo-v4">
    <path class="cls-8" d="M456.88,246.74c-.03,21.79-3.36,43.52-10.04,64.26-6.43,19.99-15.98,38.98-28.09,56.14-11.99,16.99-26.5,32.18-42.93,44.94s-35.01,23.19-54.63,30.54c-20.24,7.59-41.64,11.97-63.22,13.01-21.86,1.06-43.87-1.32-64.99-7.06-20.26-5.5-39.71-14.18-57.32-25.63-17.18-11.17-32.65-24.91-45.72-40.7s-24.2-34.23-32.08-53.6-13.08-41.04-14.71-62.47c-1.67-21.91,.07-44.09,5.22-65.46,4.96-20.55,13.09-40.29,24-58.4s24.14-34.03,39.62-47.94c15.52-13.95,33.12-25.58,52.08-34.33,19.42-8.96,40.21-14.89,61.44-17.54,21.84-2.73,44.09-2.01,65.71,2.15,20.84,4.01,41.03,11.26,59.64,21.46,18,9.86,34.45,22.46,48.67,37.26s26.46,32.17,35.72,50.75c9.49,19.04,15.99,39.62,19.21,60.65,1.62,10.57,2.41,21.26,2.42,31.95,0,1.17,1.51,2.33,2.37,2.92,.31,.21,2.41,1.47,2.41,.39-.03-22.1-3.46-44.16-10.29-65.18-6.61-20.35-16.38-39.63-28.75-57.08-12.37-17.44-27.35-33.06-44.27-46.13-17.01-13.14-35.88-23.81-56.01-31.38-20.57-7.74-42.32-12.23-64.27-13.27-22.22-1.05-44.57,1.33-66.02,7.22s-40.3,14.52-58.24,26.11c-17.85,11.54-33.93,25.8-47.54,42.14-13.62,16.36-24.73,34.78-32.81,54.48-8.28,20.17-13.38,41.62-15.07,63.36-1.73,22.24,.08,44.73,5.34,66.4s13.4,40.96,24.54,59.33,25.01,34.94,40.97,49.24c15.95,14.29,34.02,26.16,53.44,35.18s40.87,15.22,62.44,17.92,44.83,2.05,66.77-2.2c21.13-4.1,41.55-11.51,60.44-21.82s35.79-23.27,50.56-38.6c14.73-15.28,27.13-32.78,36.63-51.75,9.67-19.3,16.32-40.12,19.64-61.45,1.68-10.76,2.49-21.63,2.51-32.52,0-1.17-1.51-2.33-2.37-2.92-.32-.22-2.41-1.47-2.41-.39Z"/>
    <g id="bottle">
      <path class="cls-3" d="M265.48,135.67c-.65-5.28-.97-7.72-1.15-8.98-.04-.29,.02-.58,.18-.83,3.39-5.38,1.86-7.99-.49-12.37-.09-.18-.19-.38-.27-.58-.63-1.48-.5-3.15,.27-4.55,.46-.86,.5-1.77,.29-2.63-.56-2.28-2.71-3.8-5.06-3.8h-21.84c-3.25,0-5.95,2.6-5.98,5.85-.01,.71,.12,1.34,.44,1.82,1.04,1.54,.59,3,.17,3.74s-.83,1.46-1.12,2.25c-2.42,6.4-.31,9.4,.65,10.35,.26,.26,.39,.63,.35,1-.59,5.6-4.87,46.64-5.56,62.33-.33,7.58-1.06,13.15-2.22,17-1.36,4.71-3.03,6.82-3.21,7.1-8.35,11.42-6.99,24.23-7.05,27.44-.02,1.63,.4,27.93,.82,56.98,.49,33.17,.98,69.48,1.13,74.1,.19,5.76,1.32,9.23,2.84,12.35,2.01,4.11,5.8,7.06,10.29,7.94,13.13,2.55,32.29,2.97,44.29,.29,5.91-1.32,9.51-5.66,11.32-11.71,1.43-4.77,.82-9.72,.77-10.84-.25-2.54-.28-43.2-.27-78.87,.01-23.81,.25-45.29,.12-51.87-.16-7.82-1.43-14.11-3.42-19.22-1.81-4.16-3.09-6.52-4.02-8.03-.57-.91-1.21-1.77-1.68-2.74-2.4-4.94-3.82-12.07-4.14-15.71-.26-2.69-.97-12.04-3.22-30.79"/>
      <g>
        <path class="cls-8" d="M248.59,265.79c3.08-5.84,6.28-11.27,9.57-16.34-1.22-2.86-2.41-5.85-3.53-8.95-6.8-18.79-18.28-29.03-30.89-34.22-1.42,4.7-2.78,6.25-3.01,6.69-8.48,11.34-7.15,24.88-7.22,27.81-.05,1.39,.4,28.11,.82,57.16,13.51-5.89,25.7-15.92,34.26-32.15Z"/>
        <path class="cls-9" d="M285.71,239.29c.1-7.72-1.37-14.35-3.54-19.36-8.27,8.07-16.39,17.8-24.01,29.52,7.85,18.29,17.7,31.84,27.46,41.82,.01-23.81,.05-45.4,.09-51.98Z"/>
        <path class="cls-7" d="M285.92,370.12c-.25-2.54-.31-43.18-.3-78.85-9.76-9.98-19.61-23.53-27.46-41.82-3.29,5.07-6.49,10.5-9.57,16.34-8.56,16.23-20.75,26.26-34.26,32.15,.49,33.17,1.06,69.31,1.11,73.94,.07,5.42,1.29,9.23,2.81,12.35,2.01,4.11,5.73,7.14,10.16,8.29,12.2,3.15,33.1,2.8,44.69,.35,6.21-1.31,10.53-5.95,11.89-11.85,1.15-4.97,1.02-10.66,.93-10.9Z"/>
      </g>
    </g>
    <g id="digital">
      <circle class="cls-8" cx="249.7" cy="139.16" r="1.91"/>
      <circle class="cls-8" cx="254.77" cy="159.16" r="1.91"/>
      <circle class="cls-4" cx="243.74" cy="151.18" r="1.91"/>
      <circle class="cls-4" cx="258.13" cy="145.22" r="1.91"/>
      <polyline class="cls-3" points="251.61 139.16 270.29 139.16 285.98 116.33 307.72 112.31"/>
      <circle class="cls-4" cx="321.39" cy="112.31" r="13.67"/>
      <circle class="cls-4" cx="327.74" cy="195.47" r="9.36"/>
      <circle class="cls-8" cx="280.87" cy="62.69" r="8.27"/>
      <circle class="cls-4" cx="232.03" cy="50.27" r="5.56"/>
      <circle class="cls-4" cx="235.71" cy="84.92" r="3.2"/>
      <circle class="cls-8" cx="357.8" cy="134.24" r="6.29"/>
      <circle class="cls-8" cx="417.11" cy="157.25" r="9.6"/>
      <circle class="cls-8" cx="410.94" cy="190.01" r="5.22"/>
      <circle class="cls-8" cx="380.98" cy="202.48" r="7.02"/>
      <circle class="cls-8" cx="353.11" cy="233.37" r="4.52"/>
      <circle class="cls-8" cx="347.63" cy="77.24" r="3.88"/>
      <circle class="cls-8" cx="331.07" cy="156.17" r="9.68"/>
      <polyline class="cls-3" points="321.39 98.64 318.39 68.43 289.14 62.69"/>
      <polyline class="cls-3" points="260.04 145.22 275.84 145.22 296.49 134.24 351.51 134.24"/>
      <polyline class="cls-3" points="245.65 151.18 276.53 151.18 293.16 156.17 321.99 156.17"/>
      <polyline class="cls-3" points="256.67 159.16 272.23 159.16 283.82 183.69 318.39 195.47"/>
      <line class="cls-3" x1="321.39" y1="51.41" x2="318.39" y2="68.43"/>
      <polyline class="cls-3" points="274.11 67.43 250.68 74.83 235.71 54.42"/>
      <line class="cls-3" x1="250.68" y1="74.83" x2="238.31" y2="83.44"/>
      <line class="cls-3" x1="371.47" y1="110.78" x2="362.24" y2="129.8"/>
      <circle class="cls-4" cx="372.77" cy="107.79" r="3.2"/>
      <circle class="cls-4" cx="401.45" cy="129.8" r="7.7"/>
      <circle class="cls-4" cx="380.98" cy="167.75" r="6.33"/>
      <circle class="cls-4" cx="360.45" cy="186.59" r="3.26"/>
      <circle class="cls-4" cx="396.86" cy="237.42" r="5.31"/>
      <circle class="cls-4" cx="434.67" cy="209.96" r="10.04"/>
      <polyline class="cls-3" points="362.82 138.02 380.62 149.27 396.12 135.35"/>
      <polyline class="cls-3" points="374.38 104.69 378.49 94.15 389.09 91.9"/>
      <line class="cls-3" x1="378.44" y1="94.15" x2="373.33" y2="79.16"/>
      <polyline class="cls-3" points="334.51 108.48 347.63 96.51 347.63 80.66"/>
      <line class="cls-3" x1="350.64" y1="74.83" x2="357.15" y2="68.43"/>
      <polyline class="cls-3" points="339.8 160.33 355.36 167.75 374.38 167.75"/>
      <line class="cls-3" x1="355.36" y1="167.75" x2="359" y2="183.55"/>
      <polyline class="cls-3" points="386 171.6 397.81 177.31 410.44 164.04"/>
      <line class="cls-3" x1="397.81" y1="177.31" x2="408.06" y2="186.59"/>
      <polyline class="cls-3" points="399.8 122.28 396.12 109.54 396.3 98.64 396.12 109.54 406.83 109.73"/>
      <line class="cls-3" x1="426.64" y1="156.17" x2="437.93" y2="156.17"/>
      <polyline class="cls-3" points="415.78 147.75 415.78 133.24 421.22 127.96"/>
      <line class="cls-3" x1="235.71" y1="46.12" x2="247.8" y2="38.84"/>
      <polyline class="cls-3" points="277.89 54.98 274.11 46.12 277.89 40.71"/>
      <line class="cls-3" x1="274.11" y1="46.12" x2="260.04" y2="38.83"/>
      <polyline class="cls-3" points="226.48 49.24 214.71 46.12 198.93 45.02"/>
      <polyline class="cls-3" points="332.7 203.39 347.63 216.54 375.88 204.82"/>
      <line class="cls-3" x1="347.63" y1="216.54" x2="351.51" y2="230.53"/>
      <polyline class="cls-3" points="386.35 207 399.96 216.54 398.22 232.41"/>
      <line class="cls-3" x1="399.96" y1="216.54" x2="424.42" y2="211.27"/>
      <polyline class="cls-3" points="434.67 199.94 435.78 183.55 446.3 175.65"/>
    </g>
    <g id="digital-2" data-name="digital">
      <circle class="cls-1" cx="233.12" cy="358.67" r="1.91"/>
      <circle class="cls-1" cx="228.05" cy="338.68" r="1.91"/>
      <circle class="cls-5" cx="239.08" cy="346.65" r="1.91"/>
      <circle class="cls-5" cx="224.69" cy="352.61" r="1.91"/>
      <polyline class="cls-3" points="231.21 358.67 212.53 358.67 196.84 381.51 175.1 385.53"/>
      <line class="cls-6" x1="231.21" y1="358.67" x2="215.25" y2="358.67"/>
      <circle class="cls-4" cx="161.43" cy="385.53" r="13.67"/>
      <circle class="cls-4" cx="155.08" cy="302.36" r="9.36"/>
      <circle class="cls-8" cx="204.15" cy="431.37" r="8.27"/>
      <circle class="cls-4" cx="252.99" cy="443.78" r="5.56"/>
      <circle class="cls-4" cx="249.31" cy="409.14" r="3.2"/>
      <path class="cls-8" d="M118.73,363.59c0-3.47,2.81-6.29,6.29-6.29s6.29,2.81,6.29,6.29-2.81,6.29-6.29,6.29c-3.47,0-6.29-2.81-6.29-6.29Z"/>
      <circle class="cls-8" cx="72.8" cy="333.79" r="7.89"/>
      <circle class="cls-8" cx="71.88" cy="307.83" r="5.22"/>
      <circle class="cls-8" cx="101.84" cy="295.35" r="7.02"/>
      <circle class="cls-8" cx="129.72" cy="264.46" r="4.52"/>
      <circle class="cls-8" cx="136.06" cy="413.02" r="3.88"/>
      <circle class="cls-8" cx="151.75" cy="341.67" r="9.68"/>
      <polyline class="cls-3" points="161.43 399.2 164.43 429.4 196.17 433.51"/>
      <polyline class="cls-3" points="222.78 352.61 206.98 352.61 186.33 363.59 131.31 363.59"/>
      <line class="cls-2" x1="222.78" y1="352.61" x2="215.16" y2="352.61"/>
      <polyline class="cls-3" points="237.17 346.65 206.29 346.65 189.66 341.67 160.83 341.67"/>
      <line class="cls-2" x1="237.17" y1="346.65" x2="215.07" y2="346.65"/>
      <polyline class="cls-3" points="226.15 338.68 210.59 338.68 199 314.15 164.43 302.36"/>
      <line class="cls-2" x1="226.15" y1="338.68" x2="214.95" y2="338.68"/>
      <line class="cls-3" x1="162.73" y1="439.07" x2="164.43" y2="429.4"/>
      <polyline class="cls-3" points="210.91 426.62 234.34 419.22 249.31 439.64"/>
      <line class="cls-3" x1="234.34" y1="419.22" x2="246.71" y2="410.61"/>
      <line class="cls-3" x1="113.55" y1="382.5" x2="120.58" y2="368.04"/>
      <circle class="cls-4" cx="112.1" cy="385.53" r="3.2"/>
      <circle class="cls-4" cx="91.04" cy="359.98" r="7.7"/>
      <circle class="cls-4" cx="101.84" cy="330.08" r="6.33"/>
      <circle class="cls-4" cx="122.37" cy="311.25" r="3.26"/>
      <circle class="cls-4" cx="85.96" cy="260.41" r="5.31"/>
      <circle class="cls-4" cx="59.49" cy="286.52" r="7.92"/>
      <polyline class="cls-3" points="120 359.82 107.85 349.04 96.82 354.86"/>
      <polyline class="cls-3" points="110.71 388.31 108.44 394.7 100.36 395.41"/>
      <line class="cls-3" x1="108.44" y1="394.7" x2="112.98" y2="407.38"/>
      <polyline class="cls-3" points="148.31 389.35 135.19 401.32 135.19 409.14"/>
      <line class="cls-3" x1="136.06" y1="416.89" x2="134.61" y2="423.55"/>
      <polyline class="cls-3" points="143.02 337.5 127.46 330.08 108.44 330.08"/>
      <line class="cls-3" x1="127.46" y1="330.08" x2="123.82" y2="314.28"/>
      <polyline class="cls-3" points="96.82 326.24 85.01 320.52 77.73 328.17"/>
      <line class="cls-3" x1="85.01" y1="320.52" x2="74.76" y2="311.25"/>
      <polyline class="cls-3" points="88.38 366.91 92.06 379.66 91.95 386.35 92.06 379.66 85.59 378.73"/>
      <line class="cls-3" x1="71.43" y1="338.23" x2="60.14" y2="338.23"/>
      <polyline class="cls-3" points="73.36 341.45 73.36 352.61 70.63 356.93"/>
      <line class="cls-3" x1="249.31" y1="447.93" x2="237.23" y2="457.59"/>
      <polyline class="cls-3" points="207.14 439.07 210.91 447.93 207.14 453.35"/>
      <line class="cls-3" x1="210.91" y1="447.93" x2="226.59" y2="456.7"/>
      <polyline class="cls-3" points="258.55 444.81 270.31 447.93 286.09 454.81"/>
      <polyline class="cls-3" points="150.12 294.44 135.19 281.3 106.94 293.01"/>
      <line class="cls-3" x1="135.19" y1="281.3" x2="131.31" y2="267.3"/>
      <polyline class="cls-3" points="96.47 290.83 82.87 281.3 84.6 265.43"/>
      <line class="cls-3" x1="82.87" y1="281.3" x2="67.41" y2="284.62"/>
      <polyline class="cls-3" points="53.96 292.08 52.85 308.46 49.62 310.89"/>
    </g>
    <line class="cls-2" x1="231.21" y1="358.67" x2="215.25" y2="358.67"/>
    <g>
      <path class="cls-8" d="M104.92,164.68l7.22-34h4.58l7.26,34h-4.49l-1.55-8.56h-6.92l-1.64,8.56h-4.45Zm6.71-11.96h5.67l-2.85-15.32-2.81,15.32Z"/>
      <path class="cls-8" d="M131.61,164.68v-34h8.44c2.04,0,3.67,.37,4.89,1.11,1.22,.74,2.1,1.81,2.67,3.21,.56,1.4,.84,3.09,.84,5.08,0,1.79-.31,3.34-.94,4.66-.63,1.32-1.56,2.33-2.79,3.04s-2.77,1.07-4.62,1.07h-3.74v15.82h-4.74Zm4.74-19.22h2.18c1.37,0,2.45-.15,3.23-.46,.78-.31,1.34-.85,1.68-1.62,.34-.77,.5-1.85,.5-3.25,0-1.62-.12-2.87-.36-3.74-.24-.87-.73-1.47-1.49-1.8-.76-.34-1.93-.5-3.53-.5h-2.22v11.37Z"/>
      <path class="cls-8" d="M156.21,164.68v-34h4.66v34h-4.66Z"/>
    </g>
    <g>
      <path class="cls-8" d="M92.16,215.33v-34h7.81c1.54,0,2.88,.17,4.01,.5,1.13,.34,2.08,.85,2.83,1.55,.76,.7,1.32,1.59,1.68,2.67,.36,1.08,.55,2.34,.55,3.8s-.17,2.61-.52,3.63c-.35,1.02-.88,1.83-1.59,2.41-.71,.59-1.63,.97-2.75,1.13,1.37,.31,2.48,.83,3.32,1.57,.84,.74,1.46,1.69,1.87,2.85,.41,1.16,.61,2.55,.61,4.18,0,1.46-.17,2.78-.5,3.99s-.86,2.22-1.57,3.06c-.71,.84-1.62,1.49-2.73,1.95-1.11,.46-2.41,.69-3.92,.69h-9.07Zm4.74-19.81h2.81c1.34,0,2.39-.19,3.15-.57,.76-.38,1.29-.99,1.59-1.83s.46-1.93,.46-3.27c0-1.57-.24-2.7-.71-3.4-.48-.7-1.22-1.14-2.22-1.32-1.01-.18-2.32-.27-3.95-.27h-1.13v10.66Zm0,16.41h3.19c2.13,0,3.55-.5,4.26-1.49,.71-.99,1.07-2.6,1.07-4.81,0-1.43-.19-2.62-.57-3.59-.38-.97-.98-1.69-1.81-2.18-.83-.49-1.94-.73-3.34-.73h-2.81v12.8Z"/>
      <path class="cls-8" d="M116,216.13v-3.4c1.04,0,1.87-.07,2.52-.21,.64-.14,1.14-.39,1.49-.76,.35-.36,.59-.89,.73-1.57,.14-.69,.21-1.56,.21-2.62v-26.23h4.7v26.32c0,1.96-.21,3.56-.63,4.81-.42,1.25-1.16,2.17-2.22,2.77-1.06,.6-2.58,.9-4.53,.9h-2.27Z"/>
      <path class="cls-8" d="M143.7,215.71c-2.41,0-4.27-.5-5.6-1.51s-2.25-2.36-2.77-4.07c-.52-1.71-.78-3.61-.78-5.71v-12c0-2.29,.26-4.29,.78-6,.52-1.71,1.44-3.03,2.77-3.97,1.33-.94,3.2-1.41,5.6-1.41,2.13,0,3.81,.39,5.06,1.18,1.24,.78,2.14,1.9,2.69,3.36,.55,1.46,.82,3.2,.82,5.25v2.69h-4.49v-2.39c0-1.26-.06-2.37-.19-3.34s-.47-1.71-1.03-2.25c-.56-.53-1.5-.8-2.81-.8s-2.32,.29-2.94,.86c-.62,.57-1.01,1.38-1.2,2.43s-.27,2.27-.27,3.67v13.47c0,1.71,.14,3.06,.42,4.05,.28,.99,.74,1.7,1.38,2.12,.64,.42,1.51,.63,2.6,.63,1.29,0,2.21-.29,2.77-.86,.56-.57,.91-1.36,1.05-2.37,.14-1.01,.21-2.18,.21-3.53v-2.52h4.49v2.52c0,2.07-.25,3.9-.75,5.48-.5,1.58-1.37,2.81-2.6,3.69s-2.97,1.32-5.2,1.32Z"/>
      <path class="cls-8" d="M160.99,215.33v-34h8.44c2.04,0,3.67,.37,4.89,1.11,1.22,.74,2.1,1.81,2.67,3.21,.56,1.4,.84,3.09,.84,5.08,0,1.79-.31,3.34-.94,4.66-.63,1.32-1.56,2.33-2.79,3.04s-2.77,1.07-4.62,1.07h-3.74v15.82h-4.74Zm4.74-19.22h2.18c1.37,0,2.45-.15,3.23-.46,.78-.31,1.34-.85,1.68-1.62,.34-.77,.5-1.85,.5-3.25,0-1.62-.12-2.87-.36-3.74-.24-.87-.73-1.47-1.49-1.8-.76-.34-1.93-.5-3.53-.5h-2.22v11.37Z"/>
    </g>
    <g>
      <path class="cls-1" d="M239.39,389.43c-.37,0-.66-.08-.87-.23s-.36-.37-.44-.66c-.09-.28-.13-.61-.13-.98v-2.29c0-.38,.04-.7,.13-.98,.08-.27,.23-.49,.45-.64,.21-.15,.52-.23,.91-.23,.35,0,.63,.07,.84,.2s.35,.32,.45,.57,.14,.56,.14,.92v.2h-.52v-.2c0-.28-.03-.51-.08-.7-.05-.18-.14-.32-.26-.41-.13-.09-.31-.14-.56-.14-.27,0-.47,.06-.6,.17-.14,.12-.22,.28-.26,.48-.04,.2-.06,.43-.06,.7v2.41c0,.28,.03,.53,.08,.73,.05,.2,.14,.36,.28,.46s.33,.16,.58,.16,.43-.05,.56-.16,.23-.26,.28-.47c.05-.2,.08-.45,.08-.74v-.69h-.87v-.41h1.38v2.84h-.35l-.07-.67c-.07,.23-.19,.41-.36,.54-.17,.13-.4,.2-.71,.2Z"/>
      <path class="cls-1" d="M242.48,389.35v-4.18h.54v.57c.13-.22,.29-.38,.46-.47s.34-.14,.5-.14h.04s.03,0,.05,0v.56s-.08-.03-.12-.03c-.05,0-.09-.01-.14-.01-.16,0-.31,.04-.45,.12s-.25,.2-.35,.37v3.21h-.54Z"/>
      <path class="cls-1" d="M246.02,389.42c-.16,0-.31-.04-.43-.13-.13-.08-.22-.2-.3-.34-.07-.14-.11-.3-.11-.47,0-.21,.03-.39,.09-.54,.06-.15,.16-.28,.29-.4,.13-.12,.31-.23,.52-.35s.48-.24,.79-.38v-.3c0-.26-.02-.46-.05-.6-.03-.15-.08-.25-.16-.32-.07-.06-.18-.09-.31-.09-.11,0-.21,.02-.3,.07-.09,.04-.16,.12-.21,.22-.05,.1-.08,.25-.08,.43v.14h-.52c0-.43,.09-.75,.27-.95,.18-.21,.46-.31,.87-.31,.37,0,.63,.11,.79,.34,.15,.22,.23,.57,.23,1.05v2.03c0,.07,0,.17,0,.28,0,.11,0,.22,.01,.32,0,.1,.01,.18,.02,.23h-.47c-.01-.09-.03-.19-.05-.31-.02-.11-.03-.2-.03-.27-.06,.17-.16,.32-.31,.45-.15,.13-.33,.2-.56,.2Zm.17-.45c.11,0,.2-.03,.29-.08,.08-.05,.16-.11,.23-.19,.07-.08,.12-.15,.16-.23v-1.3c-.21,.11-.39,.21-.53,.29-.15,.08-.27,.17-.36,.25s-.16,.17-.2,.28c-.04,.1-.07,.23-.07,.37,0,.22,.05,.38,.14,.47,.09,.09,.21,.14,.34,.14Z"/>
      <path class="cls-1" d="M248.9,390.73v-5.56h.53v.35c.09-.1,.2-.2,.33-.28,.13-.09,.29-.13,.48-.13,.2,0,.37,.05,.49,.14,.12,.09,.22,.22,.29,.38s.11,.34,.14,.54c.02,.2,.04,.4,.04,.62v.88c0,.36-.03,.67-.09,.93-.06,.27-.16,.47-.31,.62-.14,.15-.35,.22-.61,.22-.17,0-.32-.04-.44-.13s-.23-.18-.31-.27v1.71h-.53Zm1.19-1.72c.16,0,.28-.05,.36-.16s.14-.26,.16-.46,.04-.44,.04-.73v-.89c0-.28-.01-.51-.04-.69s-.08-.33-.16-.42-.21-.14-.37-.14c-.13,0-.26,.04-.37,.11-.11,.07-.21,.14-.28,.22v2.85c.08,.08,.17,.16,.29,.22s.24,.09,.37,.09Z"/>
      <path class="cls-1" d="M252.65,389.35v-5.86h.53v2.12c.14-.15,.29-.27,.46-.37,.17-.09,.36-.14,.56-.14,.14,0,.26,.04,.35,.11,.09,.07,.17,.17,.22,.3s.08,.29,.08,.48v3.36h-.54v-3.24c0-.22-.03-.37-.1-.46-.06-.09-.16-.13-.3-.13-.12,0-.25,.04-.37,.11-.13,.07-.25,.17-.36,.29v3.44h-.53Z"/>
      <path class="cls-1" d="M259.06,390.5c-.11-.06-.22-.14-.33-.25-.12-.11-.23-.24-.35-.39-.12-.15-.23-.3-.34-.45-.03,0-.06,0-.09,0h-.1c-.39,0-.69-.08-.91-.23-.22-.15-.38-.36-.47-.64-.09-.27-.14-.58-.14-.94v-2.43c0-.36,.05-.67,.15-.93,.1-.26,.25-.47,.48-.61,.22-.14,.52-.22,.9-.22s.68,.07,.91,.22c.22,.14,.38,.35,.48,.61,.1,.26,.14,.57,.14,.93v2.44c0,.28-.03,.54-.09,.77-.06,.23-.15,.43-.29,.59-.13,.16-.32,.28-.55,.35,.06,.08,.13,.16,.21,.26,.08,.09,.16,.18,.24,.26,.08,.08,.15,.14,.22,.19l-.07,.46Zm-1.21-1.52c.26,0,.46-.05,.6-.16,.14-.1,.24-.25,.29-.43s.08-.4,.08-.65v-2.66c0-.25-.03-.46-.08-.64s-.15-.33-.29-.42-.34-.15-.6-.15-.45,.05-.59,.15-.23,.24-.29,.42c-.05,.18-.08,.4-.08,.64v2.66c0,.25,.03,.46,.08,.65,.06,.19,.15,.33,.29,.43,.14,.1,.33,.16,.59,.16Z"/>
      <path class="cls-1" d="M261.01,389.35v-5.86h.55v5.45h1.67v.41h-2.22Z"/>
    </g>
  </g>
</svg>