<?xml version="1.0" encoding="UTF-8"?>
<svg id="Calque_1" data-name="Calque 1" xmlns="http://www.w3.org/2000/svg" viewBox="0 0 500 500">
  <defs>
    <style>
      .cls-1 {
        fill: #fff;
      }

      .cls-2, .cls-3, .cls-4, .cls-5, .cls-6, .cls-7 {
        fill: none;
        stroke-miterlimit: 10;
      }

      .cls-2, .cls-3, .cls-6 {
        stroke: #fff;
      }

      .cls-2, .cls-4, .cls-7 {
        stroke-width: .75px;
      }

      .cls-8 {
        fill: #9cc763;
      }

      .cls-3, .cls-5 {
        stroke-width: .5px;
      }

      .cls-4 {
        stroke: #77966d;
      }

      .cls-5, .cls-7 {
        stroke: #9bc764;
      }

      .cls-9 {
        fill: #d69028;
      }

      .cls-10 {
        fill: #bd5825;
      }

      .cls-11 {
        fill: #9bc764;
      }

      .cls-6 {
        stroke-width: .25px;
      }
    </style>
  </defs>
  <g id="logo-v4">
    <path class="cls-11" d="M452.96,249.41c-.03,21.79-3.36,43.52-10.04,64.26-6.43,19.99-15.98,38.98-28.09,56.14-11.99,16.99-26.5,32.18-42.93,44.94-16.55,12.85-35.01,23.19-54.63,30.54-20.24,7.59-41.64,11.97-63.22,13.01-21.86,1.06-43.87-1.32-64.99-7.06s-39.71-14.18-57.32-25.63-32.65-24.91-45.72-40.7c-13.34-16.11-24.2-34.23-32.08-53.6s-13.08-41.04-14.71-62.47,.07-44.09,5.22-65.46,13.09-40.29,24-58.4,24.14-34.03,39.62-47.94c15.52-13.95,33.12-25.58,52.08-34.33,19.42-8.96,40.21-14.89,61.44-17.54s44.09-2.01,65.71,2.15,41.03,11.26,59.64,21.46,34.45,22.46,48.67,37.26,26.46,32.17,35.72,50.75,15.99,39.62,19.21,60.65c1.62,10.57,2.41,21.26,2.42,31.95,0,1.17,1.51,2.33,2.37,2.92,.31,.21,2.41,1.47,2.41,.39-.03-22.1-3.46-44.16-10.29-65.18s-16.38-39.63-28.75-57.08c-12.37-17.44-27.35-33.06-44.27-46.13-17.01-13.14-35.88-23.81-56.01-31.38-20.57-7.74-42.32-12.23-64.27-13.27-22.22-1.05-44.57,1.33-66.02,7.22s-40.3,14.52-58.24,26.11c-17.85,11.54-33.93,25.8-47.54,42.14s-24.73,34.78-32.81,54.48c-8.28,20.17-13.38,41.62-15.07,63.36-1.73,22.24,.08,44.73,5.34,66.4,5.07,20.88,13.4,40.96,24.54,59.33,11.12,18.34,25.01,34.94,40.97,49.24,15.95,14.29,34.02,26.16,53.44,35.18,19.71,9.16,40.87,15.22,62.44,17.92,22.18,2.77,44.83,2.05,66.77-2.2,21.13-4.1,41.55-11.51,60.44-21.82,18.68-10.2,35.79-23.27,50.56-38.6,14.73-15.28,27.13-32.78,36.63-51.75,9.67-19.3,16.32-40.12,19.64-61.45,1.68-10.76,2.49-21.63,2.51-32.52,0-1.17-1.51-2.33-2.37-2.92-.32-.22-2.41-1.47-2.41-.39Z"/>
    <g id="bottle">
      <path class="cls-7" d="M261.56,138.34c-.65-5.28-.97-7.72-1.15-8.98-.04-.29,.02-.58,.18-.83,3.39-5.38,1.86-7.99-.49-12.37-.09-.18-.19-.38-.27-.58-.63-1.48-.5-3.15,.27-4.55,.46-.86,.5-1.77,.29-2.63-.56-2.28-2.71-3.8-5.06-3.8h-21.84c-3.25,0-5.95,2.6-5.98,5.85-.01,.71,.12,1.34,.44,1.82,1.04,1.54,.59,3,.17,3.74s-.83,1.46-1.12,2.25c-2.42,6.4-.31,9.4,.65,10.35,.26,.26,.39,.63,.35,1-.59,5.6-4.87,46.64-5.56,62.33-.33,7.58-1.06,13.15-2.22,17-1.36,4.71-3.03,6.82-3.21,7.1-8.35,11.42-6.99,24.23-7.05,27.44-.02,1.63,.4,27.93,.82,56.98,.49,33.17,.98,69.48,1.13,74.1,.19,5.76,1.32,9.23,2.84,12.35,2.01,4.11,5.8,7.06,10.29,7.94,13.13,2.55,32.29,2.97,44.29,.29,5.91-1.32,9.51-5.66,11.32-11.71,1.43-4.77,.82-9.72,.77-10.84-.25-2.54-.28-43.2-.27-78.87,.01-23.81,.25-45.29,.12-51.87-.16-7.82-1.43-14.11-3.42-19.22-1.81-4.16-3.09-6.52-4.02-8.03-.57-.91-1.21-1.77-1.68-2.74-2.4-4.94-3.82-12.07-4.14-15.71-.26-2.69-.97-12.04-3.22-30.79"/>
      <g>
        <path class="cls-9" d="M244.67,268.46c3.08-5.84,6.28-11.27,9.57-16.34-1.22-2.86-2.41-5.85-3.53-8.95-6.8-18.79-18.28-29.03-30.89-34.22-1.42,4.7-2.78,6.25-3.01,6.69-8.48,11.34-7.15,24.88-7.22,27.81-.05,1.39,.4,28.11,.82,57.16,13.51-5.89,25.7-15.92,34.26-32.15Z"/>
        <path class="cls-8" d="M281.79,241.96c.1-7.72-1.37-14.35-3.54-19.36-8.27,8.07-16.39,17.8-24.01,29.52,7.85,18.29,17.7,31.84,27.46,41.82,.01-23.81,.05-45.4,.09-51.98Z"/>
        <path class="cls-10" d="M282,372.79c-.25-2.54-.31-43.18-.3-78.85-9.76-9.98-19.61-23.53-27.46-41.82-3.29,5.07-6.49,10.5-9.57,16.34-8.56,16.23-20.75,26.26-34.26,32.15,.49,33.17,1.06,69.31,1.11,73.94,.07,5.42,1.29,9.23,2.81,12.35,2.01,4.11,5.73,7.14,10.16,8.29,12.2,3.15,33.1,2.8,44.69,.35,6.21-1.31,10.53-5.95,11.89-11.85,1.15-4.97,1.02-10.66,.93-10.9Z"/>
      </g>
    </g>
    <g id="digital">
      <circle class="cls-11" cx="245.78" cy="141.83" r="1.91"/>
      <circle class="cls-11" cx="250.85" cy="161.82" r="1.91"/>
      <circle class="cls-5" cx="239.82" cy="153.85" r="1.91"/>
      <circle class="cls-5" cx="254.21" cy="147.88" r="1.91"/>
      <polyline class="cls-7" points="247.69 141.83 266.37 141.83 282.06 118.99 303.79 114.97"/>
      <circle class="cls-5" cx="317.46" cy="114.97" r="13.67"/>
      <circle class="cls-5" cx="323.82" cy="198.13" r="9.36"/>
      <circle class="cls-8" cx="276.95" cy="65.35" r="8.27"/>
      <circle class="cls-5" cx="228.11" cy="52.94" r="5.56"/>
      <circle class="cls-5" cx="231.79" cy="87.59" r="3.2"/>
      <circle class="cls-8" cx="353.88" cy="136.91" r="6.29"/>
      <circle class="cls-8" cx="413.19" cy="159.91" r="9.6"/>
      <circle class="cls-8" cx="407.01" cy="192.67" r="5.22"/>
      <circle class="cls-8" cx="377.06" cy="205.15" r="7.02"/>
      <circle class="cls-8" cx="349.18" cy="236.04" r="4.52"/>
      <circle class="cls-8" cx="343.71" cy="79.91" r="3.88"/>
      <circle class="cls-8" cx="327.15" cy="158.83" r="9.68"/>
      <polyline class="cls-7" points="317.46 101.3 314.47 71.1 285.22 65.35"/>
      <polyline class="cls-7" points="256.12 147.88 271.92 147.88 292.57 136.91 347.59 136.91"/>
      <polyline class="cls-7" points="241.73 153.85 272.61 153.85 289.24 158.83 318.07 158.83"/>
      <polyline class="cls-7" points="252.75 161.82 268.31 161.82 279.9 186.35 314.47 198.13"/>
      <line class="cls-7" x1="317.46" y1="54.07" x2="314.47" y2="71.1"/>
      <polyline class="cls-7" points="270.19 70.1 246.76 77.5 231.79 57.08"/>
      <line class="cls-7" x1="246.76" y1="77.5" x2="234.39" y2="86.11"/>
      <line class="cls-7" x1="367.55" y1="113.45" x2="358.32" y2="132.46"/>
      <circle class="cls-5" cx="368.85" cy="110.45" r="3.2"/>
      <circle class="cls-5" cx="397.53" cy="132.46" r="7.7"/>
      <circle class="cls-5" cx="377.06" cy="170.41" r="6.33"/>
      <circle class="cls-5" cx="356.53" cy="189.25" r="3.26"/>
      <circle class="cls-5" cx="392.94" cy="240.09" r="5.31"/>
      <circle class="cls-5" cx="430.75" cy="212.63" r="10.04"/>
      <polyline class="cls-7" points="358.9 140.68 376.7 151.94 392.2 138.01"/>
      <polyline class="cls-7" points="370.46 107.36 374.57 96.82 385.17 94.57"/>
      <line class="cls-7" x1="374.52" y1="96.82" x2="369.41" y2="81.82"/>
      <polyline class="cls-7" points="330.59 111.15 343.71 99.18 343.71 83.33"/>
      <line class="cls-7" x1="346.72" y1="77.5" x2="353.23" y2="71.1"/>
      <polyline class="cls-7" points="335.88 163 351.44 170.41 370.46 170.41"/>
      <line class="cls-7" x1="351.44" y1="170.41" x2="355.08" y2="186.21"/>
      <polyline class="cls-7" points="382.08 174.26 393.89 179.98 406.52 166.71"/>
      <line class="cls-7" x1="393.89" y1="179.98" x2="404.14" y2="189.25"/>
      <polyline class="cls-7" points="395.88 124.95 392.2 112.2 392.38 101.3 392.2 112.2 402.91 112.39"/>
      <line class="cls-7" x1="422.72" y1="158.83" x2="434.01" y2="158.83"/>
      <polyline class="cls-7" points="411.86 150.42 411.86 135.9 417.3 130.62"/>
      <line class="cls-7" x1="231.79" y1="48.79" x2="243.87" y2="41.5"/>
      <polyline class="cls-7" points="273.97 57.65 270.19 48.79 273.97 43.37"/>
      <line class="cls-7" x1="270.19" y1="48.79" x2="256.12" y2="41.49"/>
      <polyline class="cls-7" points="222.55 51.91 210.79 48.79 195.01 47.69"/>
      <polyline class="cls-7" points="328.78 206.06 343.71 219.2 371.96 207.49"/>
      <line class="cls-7" x1="343.71" y1="219.2" x2="347.59" y2="233.2"/>
      <polyline class="cls-7" points="382.43 209.66 396.03 219.2 394.3 235.07"/>
      <line class="cls-7" x1="396.03" y1="219.2" x2="420.5" y2="213.94"/>
      <polyline class="cls-7" points="430.75 202.6 431.86 186.21 442.37 178.31"/>
    </g>
    <g id="digital-2" data-name="digital">
      <circle class="cls-1" cx="229.2" cy="361.34" r="1.91"/>
      <circle class="cls-1" cx="224.13" cy="341.34" r="1.91"/>
      <circle class="cls-3" cx="235.16" cy="349.32" r="1.91"/>
      <circle class="cls-3" cx="220.77" cy="355.28" r="1.91"/>
      <polyline class="cls-7" points="227.29 361.34 208.61 361.34 192.92 384.17 171.18 388.19"/>
      <line class="cls-6" x1="227.29" y1="361.34" x2="211.33" y2="361.34"/>
      <circle class="cls-5" cx="157.51" cy="388.19" r="13.67"/>
      <circle class="cls-5" cx="151.16" cy="305.03" r="9.36"/>
      <circle class="cls-8" cx="200.23" cy="434.03" r="8.27"/>
      <circle class="cls-5" cx="249.07" cy="446.45" r="5.56"/>
      <circle class="cls-5" cx="245.39" cy="411.8" r="3.2"/>
      <path class="cls-8" d="M114.81,366.26c0-3.47,2.81-6.29,6.29-6.29s6.29,2.81,6.29,6.29-2.81,6.29-6.29,6.29c-3.47,0-6.29-2.81-6.29-6.29Z"/>
      <circle class="cls-8" cx="68.87" cy="336.46" r="7.89"/>
      <circle class="cls-8" cx="67.96" cy="310.49" r="5.22"/>
      <circle class="cls-8" cx="97.92" cy="298.02" r="7.02"/>
      <circle class="cls-8" cx="125.79" cy="267.13" r="4.52"/>
      <circle class="cls-8" cx="132.14" cy="415.68" r="3.88"/>
      <circle class="cls-8" cx="147.83" cy="344.33" r="9.68"/>
      <polyline class="cls-7" points="157.51 401.86 160.51 432.07 192.25 436.18"/>
      <polyline class="cls-7" points="218.86 355.28 203.06 355.28 182.41 366.26 127.38 366.26"/>
      <line class="cls-2" x1="218.86" y1="355.28" x2="211.24" y2="355.28"/>
      <polyline class="cls-7" points="233.25 349.32 202.37 349.32 185.74 344.33 156.91 344.33"/>
      <line class="cls-2" x1="233.25" y1="349.32" x2="211.15" y2="349.32"/>
      <polyline class="cls-7" points="222.22 341.34 206.67 341.34 195.08 316.81 160.51 305.03"/>
      <line class="cls-2" x1="222.22" y1="341.34" x2="211.03" y2="341.34"/>
      <line class="cls-4" x1="158.81" y1="441.74" x2="160.51" y2="432.07"/>
      <polyline class="cls-7" points="206.99 429.29 230.42 421.89 245.39 442.3"/>
      <line class="cls-7" x1="230.42" y1="421.89" x2="242.79" y2="413.28"/>
      <line class="cls-7" x1="109.63" y1="385.17" x2="116.65" y2="370.7"/>
      <circle class="cls-5" cx="108.18" cy="388.19" r="3.2"/>
      <circle class="cls-5" cx="87.12" cy="362.65" r="7.7"/>
      <circle class="cls-5" cx="97.92" cy="332.75" r="6.33"/>
      <circle class="cls-5" cx="118.45" cy="313.91" r="3.26"/>
      <circle class="cls-5" cx="82.04" cy="263.08" r="5.31"/>
      <circle class="cls-5" cx="55.56" cy="289.19" r="7.92"/>
      <polyline class="cls-7" points="116.08 362.48 103.93 351.71 92.9 357.53"/>
      <polyline class="cls-7" points="106.79 390.97 104.52 397.37 96.44 398.07"/>
      <line class="cls-7" x1="104.52" y1="397.37" x2="109.06" y2="410.05"/>
      <polyline class="cls-7" points="144.39 392.02 131.27 403.99 131.27 411.8"/>
      <line class="cls-7" x1="132.14" y1="419.56" x2="130.69" y2="426.22"/>
      <polyline class="cls-7" points="139.1 340.17 123.53 332.75 104.52 332.75"/>
      <line class="cls-7" x1="123.53" y1="332.75" x2="119.9" y2="316.95"/>
      <polyline class="cls-7" points="92.9 328.9 81.09 323.19 73.81 330.84"/>
      <line class="cls-7" x1="81.09" y1="323.19" x2="70.84" y2="313.91"/>
      <polyline class="cls-7" points="84.46 369.58 88.14 382.32 88.03 389.02 88.14 382.32 81.67 381.4"/>
      <line class="cls-7" x1="67.51" y1="340.89" x2="56.22" y2="340.89"/>
      <polyline class="cls-7" points="69.43 344.12 69.43 355.28 66.71 359.6"/>
      <line class="cls-7" x1="245.39" y1="450.6" x2="233.31" y2="460.26"/>
      <polyline class="cls-7" points="203.21 441.74 206.99 450.6 203.21 456.02"/>
      <line class="cls-7" x1="206.99" y1="450.6" x2="222.67" y2="459.36"/>
      <polyline class="cls-7" points="254.62 447.48 266.39 450.6 282.17 457.48"/>
      <polyline class="cls-7" points="146.2 297.11 131.27 283.96 103.01 295.67"/>
      <line class="cls-7" x1="131.27" y1="283.96" x2="127.38" y2="269.96"/>
      <polyline class="cls-7" points="92.55 293.5 78.94 283.96 80.68 268.09"/>
      <line class="cls-7" x1="78.94" y1="283.96" x2="63.49" y2="287.29"/>
      <polyline class="cls-7" points="50.04 294.74 48.93 311.13 45.69 313.56"/>
    </g>
    <line class="cls-2" x1="227.29" y1="361.34" x2="211.33" y2="361.34"/>
    <g>
      <path class="cls-8" d="M101,167.35l7.22-34h4.57l7.26,34h-4.49l-1.55-8.56h-6.93l-1.64,8.56h-4.45Zm6.72-11.96h5.67l-2.85-15.32-2.81,15.32Z"/>
      <path class="cls-8" d="M127.69,167.35v-34h8.44c2.04,0,3.67,.37,4.89,1.11,1.22,.74,2.1,1.81,2.67,3.21,.56,1.4,.84,3.09,.84,5.08,0,1.79-.31,3.34-.94,4.66-.63,1.32-1.56,2.33-2.79,3.04-1.23,.71-2.77,1.07-4.62,1.07h-3.74v15.82h-4.74Zm4.74-19.22h2.18c1.37,0,2.45-.15,3.23-.46,.78-.31,1.34-.85,1.68-1.62,.34-.77,.5-1.85,.5-3.25,0-1.62-.12-2.87-.36-3.74-.24-.87-.73-1.47-1.49-1.8-.76-.34-1.93-.5-3.53-.5h-2.22v11.37Z"/>
      <path class="cls-8" d="M152.29,167.35v-34h4.66v34h-4.66Z"/>
    </g>
    <g>
      <path class="cls-8" d="M88.24,218v-34h7.81c1.54,0,2.88,.17,4.01,.5,1.13,.34,2.08,.85,2.83,1.55,.76,.7,1.31,1.59,1.68,2.67,.36,1.08,.55,2.34,.55,3.8s-.17,2.61-.52,3.63c-.35,1.02-.88,1.83-1.59,2.41-.71,.59-1.63,.97-2.75,1.13,1.37,.31,2.48,.83,3.32,1.57,.84,.74,1.46,1.69,1.87,2.85,.41,1.16,.61,2.55,.61,4.18,0,1.46-.17,2.78-.5,3.99s-.86,2.22-1.57,3.06c-.71,.84-1.62,1.49-2.73,1.95-1.11,.46-2.41,.69-3.92,.69h-9.07Zm4.74-19.81h2.81c1.34,0,2.39-.19,3.15-.57,.76-.38,1.29-.99,1.59-1.83,.31-.84,.46-1.93,.46-3.27,0-1.57-.24-2.7-.71-3.4-.48-.7-1.22-1.14-2.22-1.32-1.01-.18-2.32-.27-3.95-.27h-1.13v10.66Zm0,16.41h3.19c2.13,0,3.55-.5,4.26-1.49,.71-.99,1.07-2.6,1.07-4.81,0-1.43-.19-2.62-.57-3.59-.38-.97-.98-1.69-1.81-2.18-.83-.49-1.94-.73-3.34-.73h-2.81v12.8Z"/>
      <path class="cls-8" d="M112.08,218.79v-3.4c1.03,0,1.87-.07,2.52-.21,.64-.14,1.14-.39,1.49-.76,.35-.36,.59-.89,.73-1.57,.14-.69,.21-1.56,.21-2.62v-26.23h4.7v26.32c0,1.96-.21,3.56-.63,4.81-.42,1.25-1.16,2.17-2.22,2.77-1.06,.6-2.57,.9-4.53,.9h-2.27Z"/>
      <path class="cls-8" d="M139.78,218.37c-2.41,0-4.27-.5-5.6-1.51s-2.25-2.36-2.77-4.07c-.52-1.71-.78-3.61-.78-5.71v-12c0-2.29,.26-4.29,.78-6,.52-1.71,1.44-3.03,2.77-3.97,1.33-.94,3.2-1.41,5.6-1.41,2.13,0,3.81,.39,5.06,1.18,1.24,.78,2.14,1.9,2.69,3.36,.55,1.46,.82,3.2,.82,5.25v2.69h-4.49v-2.39c0-1.26-.06-2.37-.19-3.34s-.47-1.71-1.03-2.25c-.56-.53-1.5-.8-2.81-.8s-2.32,.29-2.94,.86c-.62,.57-1.01,1.38-1.2,2.43-.18,1.05-.27,2.27-.27,3.67v13.47c0,1.71,.14,3.06,.42,4.05,.28,.99,.74,1.7,1.38,2.12,.64,.42,1.51,.63,2.6,.63,1.29,0,2.21-.29,2.77-.86,.56-.57,.91-1.36,1.05-2.37,.14-1.01,.21-2.18,.21-3.53v-2.52h4.49v2.52c0,2.07-.25,3.9-.76,5.48-.5,1.58-1.37,2.81-2.6,3.69-1.23,.88-2.97,1.32-5.2,1.32Z"/>
      <path class="cls-8" d="M157.07,218v-34h8.44c2.04,0,3.67,.37,4.89,1.11,1.22,.74,2.1,1.81,2.67,3.21,.56,1.4,.84,3.09,.84,5.08,0,1.79-.31,3.34-.94,4.66-.63,1.32-1.56,2.33-2.79,3.04-1.23,.71-2.77,1.07-4.62,1.07h-3.74v15.82h-4.74Zm4.74-19.22h2.18c1.37,0,2.45-.15,3.23-.46,.78-.31,1.34-.85,1.68-1.62,.34-.77,.5-1.85,.5-3.25,0-1.62-.12-2.87-.36-3.74-.24-.87-.73-1.47-1.49-1.8-.76-.34-1.93-.5-3.53-.5h-2.22v11.37Z"/>
    </g>
    <g>
      <path class="cls-1" d="M235.47,392.1c-.37,0-.66-.08-.87-.23s-.36-.37-.44-.66c-.09-.28-.13-.61-.13-.98v-2.29c0-.38,.04-.7,.13-.98,.08-.27,.23-.49,.45-.64,.21-.15,.52-.23,.91-.23,.35,0,.63,.07,.84,.2,.21,.13,.35,.32,.45,.57,.09,.25,.14,.56,.14,.92v.2h-.52v-.2c0-.28-.03-.51-.08-.7-.05-.18-.14-.32-.26-.41s-.31-.14-.56-.14c-.27,0-.47,.06-.6,.17-.14,.12-.22,.28-.26,.48-.04,.2-.06,.43-.06,.7v2.41c0,.28,.03,.53,.08,.73,.05,.2,.15,.36,.28,.46,.14,.11,.33,.16,.58,.16s.43-.05,.56-.16,.23-.26,.28-.47c.05-.2,.08-.45,.08-.74v-.69h-.87v-.41h1.38v2.84h-.35l-.06-.67c-.07,.23-.19,.41-.36,.54s-.4,.2-.71,.2Z"/>
      <path class="cls-1" d="M238.56,392.02v-4.18h.54v.57c.13-.22,.29-.38,.46-.47,.17-.09,.34-.14,.5-.14h.04s.03,0,.05,0v.56s-.07-.03-.12-.03c-.05,0-.09-.01-.14-.01-.16,0-.31,.04-.45,.12-.13,.08-.25,.2-.35,.37v3.21h-.54Z"/>
      <path class="cls-1" d="M242.09,392.08c-.16,0-.31-.04-.43-.13-.13-.08-.22-.2-.3-.34-.07-.14-.11-.3-.11-.47,0-.21,.03-.39,.09-.54,.06-.15,.16-.28,.29-.4,.13-.12,.31-.23,.52-.35s.48-.24,.79-.38v-.3c0-.26-.02-.46-.05-.6-.03-.15-.08-.25-.16-.32-.07-.06-.18-.09-.31-.09-.11,0-.21,.02-.3,.07-.09,.04-.16,.12-.21,.22s-.08,.25-.08,.43v.14h-.52c0-.43,.1-.75,.27-.95,.18-.21,.46-.31,.87-.31,.37,0,.63,.11,.79,.34,.15,.22,.23,.57,.23,1.05v2.03c0,.07,0,.17,0,.28,0,.11,0,.22,.01,.32s.01,.18,.02,.23h-.47c-.01-.09-.03-.19-.05-.31s-.03-.2-.03-.27c-.06,.17-.16,.32-.31,.45-.15,.13-.33,.2-.56,.2Zm.17-.45c.11,0,.2-.03,.29-.08s.16-.11,.23-.19,.12-.15,.16-.23v-1.3c-.21,.11-.39,.21-.53,.29-.15,.08-.27,.17-.36,.25s-.16,.17-.2,.28c-.04,.1-.07,.23-.07,.37,0,.22,.05,.38,.14,.47,.09,.09,.21,.14,.34,.14Z"/>
      <path class="cls-1" d="M244.98,393.39v-5.56h.53v.35c.09-.1,.2-.2,.33-.28s.29-.13,.48-.13c.2,0,.37,.05,.49,.14,.12,.09,.22,.22,.29,.38,.07,.16,.11,.34,.14,.54,.02,.2,.04,.4,.04,.62v.88c0,.36-.03,.67-.09,.93-.06,.27-.16,.47-.31,.62-.14,.15-.35,.22-.61,.22-.17,0-.31-.04-.44-.13s-.23-.18-.31-.27v1.71h-.53Zm1.19-1.72c.16,0,.28-.05,.36-.16s.14-.26,.16-.46c.03-.2,.04-.44,.04-.73v-.89c0-.28-.01-.51-.04-.69-.03-.19-.08-.33-.16-.42s-.21-.14-.37-.14c-.14,0-.26,.04-.37,.11-.11,.07-.21,.14-.28,.22v2.85c.08,.08,.17,.16,.29,.22s.24,.09,.37,.09Z"/>
      <path class="cls-1" d="M248.73,392.02v-5.86h.53v2.12c.14-.15,.29-.27,.46-.37,.17-.09,.36-.14,.56-.14,.14,0,.26,.04,.35,.11,.09,.07,.17,.17,.22,.3s.08,.29,.08,.48v3.36h-.54v-3.24c0-.22-.03-.37-.1-.46-.06-.09-.16-.13-.3-.13-.12,0-.25,.04-.37,.11-.13,.07-.25,.17-.36,.29v3.44h-.53Z"/>
      <path class="cls-1" d="M255.14,393.17c-.11-.06-.22-.14-.33-.25-.12-.11-.23-.24-.35-.39-.12-.15-.23-.3-.34-.45-.03,0-.06,0-.09,0h-.1c-.39,0-.69-.08-.91-.23-.22-.15-.38-.36-.47-.64-.09-.27-.14-.58-.14-.94v-2.43c0-.36,.05-.67,.15-.93,.1-.26,.25-.47,.48-.61,.22-.14,.52-.22,.9-.22s.68,.07,.91,.22c.22,.14,.38,.35,.48,.61,.1,.26,.14,.57,.14,.93v2.44c0,.28-.03,.54-.09,.77-.06,.23-.15,.43-.29,.59-.13,.16-.32,.28-.55,.35,.06,.08,.13,.16,.21,.26,.08,.09,.16,.18,.24,.26,.08,.08,.15,.14,.22,.19l-.07,.46Zm-1.21-1.52c.26,0,.46-.05,.6-.16,.14-.1,.24-.25,.29-.43s.08-.4,.08-.65v-2.66c0-.25-.03-.46-.08-.64s-.15-.33-.29-.42-.34-.15-.6-.15-.45,.05-.59,.15-.23,.24-.29,.42c-.05,.18-.08,.4-.08,.64v2.66c0,.25,.03,.46,.08,.65,.06,.19,.15,.33,.29,.43,.14,.1,.33,.16,.59,.16Z"/>
      <path class="cls-1" d="M257.09,392.02v-5.86h.55v5.45h1.67v.41h-2.22Z"/>
    </g>
  </g>
</svg>